<svg width="295" height="55" viewBox="0 0 295 55" fill="none" xmlns="http://www.w3.org/2000/svg">
<path d="M88.496 11.32H93.56V38.488H105.728V43H88.496V11.32Z" fill="black"/>
<path d="M120.26 43.576C118.196 43.576 116.356 43.128 114.74 42.232C113.14 41.32 111.884 40.088 110.972 38.536C110.06 36.968 109.604 35.192 109.604 33.208C109.604 31.224 110.06 29.44 110.972 27.856C111.884 26.272 113.14 25.024 114.74 24.112C116.356 23.184 118.196 22.72 120.26 22.72C122.324 22.72 124.148 23.184 125.732 24.112C127.316 25.024 128.556 26.272 129.452 27.856C130.364 29.44 130.82 31.224 130.82 33.208C130.82 35.192 130.364 36.968 129.452 38.536C128.556 40.088 127.316 41.32 125.732 42.232C124.148 43.128 122.324 43.576 120.26 43.576ZM120.26 39.256C121.412 39.256 122.412 38.992 123.26 38.464C124.108 37.936 124.764 37.216 125.228 36.304C125.692 35.392 125.924 34.352 125.924 33.184C125.924 32.016 125.692 30.976 125.228 30.064C124.764 29.136 124.108 28.4 123.26 27.856C122.412 27.312 121.412 27.04 120.26 27.04C119.108 27.04 118.1 27.312 117.236 27.856C116.388 28.4 115.724 29.136 115.244 30.064C114.78 30.976 114.548 32.016 114.548 33.184C114.548 34.352 114.78 35.392 115.244 36.304C115.724 37.216 116.388 37.936 117.236 38.464C118.1 38.992 119.108 39.256 120.26 39.256Z" fill="black"/>
<path d="M144.877 39.424C146.013 39.424 146.933 39.24 147.637 38.872C148.357 38.488 148.821 38.208 149.029 38.032L151.453 41.632C151.261 41.792 150.861 42.032 150.253 42.352C149.645 42.656 148.869 42.936 147.925 43.192C146.997 43.448 145.941 43.576 144.757 43.576C142.805 43.576 141.029 43.168 139.429 42.352C137.845 41.52 136.573 40.328 135.613 38.776C134.669 37.208 134.197 35.328 134.197 33.136C134.197 30.928 134.669 29.048 135.613 27.496C136.573 25.944 137.845 24.76 139.429 23.944C141.029 23.128 142.805 22.72 144.757 22.72C145.925 22.72 146.965 22.856 147.877 23.128C148.805 23.384 149.573 23.68 150.181 24.016C150.789 24.352 151.197 24.616 151.405 24.808L148.933 28.408C148.821 28.296 148.589 28.12 148.237 27.88C147.901 27.624 147.453 27.392 146.893 27.184C146.333 26.976 145.661 26.872 144.877 26.872C143.917 26.872 142.997 27.128 142.117 27.64C141.237 28.152 140.517 28.88 139.957 29.824C139.397 30.752 139.117 31.856 139.117 33.136C139.117 34.416 139.397 35.528 139.957 36.472C140.517 37.416 141.237 38.144 142.117 38.656C142.997 39.168 143.917 39.424 144.877 39.424Z" fill="black"/>
<path d="M170.868 43V39.352C170.74 39.736 170.372 40.264 169.764 40.936C169.172 41.608 168.356 42.216 167.316 42.76C166.292 43.304 165.076 43.576 163.668 43.576C161.828 43.576 160.172 43.136 158.7 42.256C157.228 41.376 156.068 40.152 155.22 38.584C154.372 37.016 153.948 35.208 153.948 33.16C153.948 31.112 154.372 29.304 155.22 27.736C156.068 26.168 157.228 24.944 158.7 24.064C160.172 23.168 161.828 22.72 163.668 22.72C165.044 22.72 166.236 22.96 167.244 23.44C168.252 23.92 169.06 24.472 169.668 25.096C170.292 25.72 170.676 26.264 170.82 26.728V23.296H175.908V43H170.868ZM159.012 33.16C159.012 34.424 159.292 35.528 159.852 36.472C160.412 37.416 161.14 38.144 162.036 38.656C162.948 39.168 163.924 39.424 164.964 39.424C166.084 39.424 167.076 39.16 167.94 38.632C168.82 38.104 169.508 37.376 170.004 36.448C170.516 35.504 170.772 34.408 170.772 33.16C170.772 31.912 170.516 30.824 170.004 29.896C169.508 28.952 168.82 28.216 167.94 27.688C167.076 27.144 166.084 26.872 164.964 26.872C163.924 26.872 162.948 27.136 162.036 27.664C161.14 28.176 160.412 28.904 159.852 29.848C159.292 30.792 159.012 31.896 159.012 33.16Z" fill="black"/>
<path d="M186.421 43H181.26V9.976H186.421V43Z" fill="black"/>
<path d="M204.276 11.32H223.476V15.832H209.292V24.928H223.236V29.32H209.292V38.488H223.476V43H204.276V11.32Z" fill="black"/>
<path d="M245.212 43V39.352C245.083 39.736 244.715 40.264 244.107 40.936C243.516 41.608 242.699 42.216 241.66 42.76C240.635 43.304 239.42 43.576 238.012 43.576C236.172 43.576 234.516 43.136 233.044 42.256C231.572 41.376 230.412 40.152 229.564 38.584C228.715 37.016 228.292 35.208 228.292 33.16C228.292 31.112 228.715 29.304 229.564 27.736C230.412 26.168 231.572 24.944 233.044 24.064C234.516 23.168 236.172 22.72 238.012 22.72C239.388 22.72 240.579 22.96 241.587 23.44C242.595 23.92 243.404 24.472 244.012 25.096C244.635 25.72 245.02 26.264 245.163 26.728V23.296H250.251V43H245.212ZM233.355 33.16C233.355 34.424 233.635 35.528 234.195 36.472C234.755 37.416 235.484 38.144 236.38 38.656C237.292 39.168 238.268 39.424 239.307 39.424C240.427 39.424 241.419 39.16 242.283 38.632C243.163 38.104 243.852 37.376 244.348 36.448C244.859 35.504 245.115 34.408 245.115 33.16C245.115 31.912 244.859 30.824 244.348 29.896C243.852 28.952 243.163 28.216 242.283 27.688C241.419 27.144 240.427 26.872 239.307 26.872C238.268 26.872 237.292 27.136 236.38 27.664C235.484 28.176 234.755 28.904 234.195 29.848C233.635 30.792 233.355 31.896 233.355 33.16Z" fill="black"/>
<path d="M263.356 22.72C264.46 22.72 265.484 22.824 266.428 23.032C267.372 23.24 268.18 23.488 268.852 23.776C269.524 24.064 269.988 24.304 270.244 24.496L268.372 27.664C268.052 27.392 267.476 27.08 266.644 26.728C265.828 26.376 264.908 26.2 263.884 26.2C262.86 26.2 261.996 26.384 261.292 26.752C260.588 27.12 260.236 27.672 260.236 28.408C260.236 29.128 260.604 29.704 261.34 30.136C262.092 30.568 263.108 30.928 264.388 31.216C265.444 31.456 266.452 31.792 267.412 32.224C268.372 32.64 269.156 33.24 269.764 34.024C270.388 34.792 270.7 35.824 270.7 37.12C270.7 38.352 270.436 39.384 269.908 40.216C269.396 41.032 268.708 41.688 267.844 42.184C266.98 42.68 266.02 43.032 264.964 43.24C263.924 43.464 262.876 43.576 261.82 43.576C260.524 43.576 259.364 43.448 258.34 43.192C257.332 42.936 256.492 42.64 255.82 42.304C255.148 41.952 254.668 41.656 254.38 41.416L256.252 37.864C256.668 38.264 257.348 38.688 258.292 39.136C259.236 39.568 260.292 39.784 261.46 39.784C262.708 39.784 263.708 39.544 264.46 39.064C265.212 38.584 265.588 37.944 265.588 37.144C265.588 36.552 265.404 36.072 265.036 35.704C264.684 35.336 264.196 35.04 263.572 34.816C262.948 34.592 262.252 34.392 261.484 34.216C260.764 34.04 260.036 33.816 259.3 33.544C258.58 33.256 257.916 32.888 257.308 32.44C256.7 31.976 256.212 31.4 255.844 30.712C255.476 30.024 255.292 29.216 255.292 28.288C255.292 27.104 255.668 26.096 256.42 25.264C257.172 24.432 258.164 23.8 259.396 23.368C260.628 22.936 261.948 22.72 263.356 22.72Z" fill="black"/>
<path d="M278.795 34.36C278.827 35.4 279.075 36.336 279.539 37.168C280.003 38 280.683 38.656 281.579 39.136C282.491 39.6 283.603 39.832 284.915 39.832C286.051 39.832 287.027 39.68 287.843 39.376C288.675 39.056 289.363 38.68 289.907 38.248C290.451 37.8 290.851 37.384 291.107 37L293.387 40.096C292.891 40.768 292.267 41.368 291.515 41.896C290.763 42.424 289.827 42.832 288.707 43.12C287.603 43.424 286.235 43.576 284.603 43.576C282.459 43.576 280.595 43.136 279.011 42.256C277.427 41.376 276.195 40.136 275.315 38.536C274.451 36.936 274.019 35.064 274.019 32.92C274.019 31 274.419 29.272 275.219 27.736C276.019 26.184 277.179 24.96 278.699 24.064C280.235 23.168 282.075 22.72 284.219 22.72C286.219 22.72 287.955 23.12 289.427 23.92C290.899 24.72 292.035 25.872 292.835 27.376C293.651 28.864 294.059 30.664 294.059 32.776C294.059 32.904 294.051 33.168 294.035 33.568C294.035 33.968 294.019 34.232 293.987 34.36H278.795ZM289.259 30.616C289.243 30.104 289.067 29.52 288.731 28.864C288.411 28.208 287.891 27.64 287.171 27.16C286.451 26.664 285.491 26.416 284.291 26.416C283.059 26.416 282.059 26.656 281.291 27.136C280.523 27.6 279.955 28.16 279.587 28.816C279.219 29.456 279.003 30.056 278.939 30.616H289.259Z" fill="black"/>
<path d="M55 27.5C55 42.6878 42.6878 55 27.5 55C12.3122 55 0 42.6878 0 27.5C0 12.3122 12.3122 0 27.5 0C42.6878 0 55 12.3122 55 27.5Z" fill="#2644D9"/>
<path d="M36.0938 45.5469C36.0938 47.92 34.17 49.8438 31.7969 49.8438C29.4238 49.8438 27.5 47.92 27.5 45.5469C27.5 43.1738 29.4238 41.25 31.7969 41.25C34.17 41.25 36.0938 43.1738 36.0938 45.5469Z" fill="#66FFE6"/>
<path d="M34.375 16.3281C34.375 22.4982 29.3732 27.5 23.2031 27.5C17.0331 27.5 12.0312 22.4982 12.0312 16.3281C12.0312 10.1581 17.0331 5.15625 23.2031 5.15625C29.3732 5.15625 34.375 10.1581 34.375 16.3281Z" fill="#66FFE6"/>
<path d="M48.125 31.7969C48.125 36.0685 44.6622 39.5312 40.3906 39.5312C36.119 39.5312 32.6562 36.0685 32.6562 31.7969C32.6562 27.5253 36.119 24.0625 40.3906 24.0625C44.6622 24.0625 48.125 27.5253 48.125 31.7969Z" fill="#66FFE6"/>
</svg>
