<svg width="414" height="513" viewBox="0 0 414 513" fill="none" xmlns="http://www.w3.org/2000/svg">
<path d="M0 0H414V483.879C414 498.274 397.813 506.727 386 498.5L374.395 508.028C367.371 513.796 357.219 513.688 350.318 507.773C343.926 502.294 334.663 501.753 327.676 506.451L324.028 508.904C315.86 514.396 305.169 514.353 297.046 508.795L294.089 506.771C286.941 501.881 277.413 502.348 270.777 507.913C263.771 513.789 253.603 513.945 246.42 508.285L245.914 507.886C238.862 502.331 228.982 502.124 221.704 507.38L220.018 508.598C212.275 514.19 201.795 514.096 194.154 508.365L193.694 508.021C186.179 502.384 175.839 502.408 168.35 508.08L167.855 508.455C160.446 514.065 150.171 513.915 142.928 508.092L142.315 507.599C135.62 502.215 126.164 501.929 119.156 506.899C110.506 513.032 98.7542 510.629 90.6134 503.834C87.1026 500.904 83.3466 498.647 80 498.5C74.732 498.269 68.2622 502.46 62.8439 507.015C56.4753 512.37 46.7565 512.664 41.0711 506.59C36.641 501.856 29.5274 500.812 23.9242 504.074L22.9738 504.627C12.7842 510.558 0 503.208 0 491.418V0Z" fill="#3990D6"/>
</svg>
